Coordinates
version=1
nRows=21
nColumns=12
inDegrees=yes

Units are S.I. units (second, meters, Newtons, ...)
Angles are in degrees

endheader
time	SC_y	SC_z	SC_x	AC_y	AC_z	AC_x	GH_y	GH_z	GH_yy	EL_x	PS_y
       0.0              -12.16          16.75          5.482          35.73         -19.27        -0.1994         -138.2           65.8          104.4          50.85          94.52
   0.01634              -12.16          16.75          5.487          35.73         -19.27        -0.1984         -138.2           65.8          104.4          50.85          94.52
   0.03268              -12.17          16.75          5.493          35.74         -19.27        -0.1974         -138.1          65.79          104.3          50.85          94.53
   0.04902              -12.17          16.75          5.499          35.74         -19.27        -0.1963         -138.1          65.78          104.3          50.85          94.53
   0.06536              -12.17          16.75          5.505          35.75         -19.27        -0.1951         -138.0          65.77          104.2          50.85          94.53
    0.0817              -12.18          16.76          5.512          35.76         -19.27        -0.1938         -138.0          65.76          104.2          50.85          94.53
   0.09805              -12.18          16.76          5.519          35.76         -19.26        -0.1925         -138.0          65.75          104.1          50.86          94.53
    0.1144              -12.19          16.76          5.527          35.77         -19.26        -0.1911         -137.9          65.74          104.1          50.86          94.53
    0.1307              -12.19          16.76          5.535          35.78         -19.26        -0.1895         -137.8          65.73          104.0          50.86          94.53
    0.1471               -12.2          16.76          5.544          35.78         -19.26        -0.1879         -137.8          65.72          103.9          50.86          94.53
    0.1634              -12.21          16.77          5.553          35.79         -19.26        -0.1861         -137.7           65.7          103.9          50.86          94.53
    0.1798              -12.21          16.77          5.564           35.8         -19.26        -0.1842         -137.6          65.69          103.8          50.86          94.53
    0.1961              -12.22          16.77          5.575          35.81         -19.26        -0.1822         -137.6          65.67          103.7          50.86          94.53
    0.2124              -12.23          16.78          5.587          35.82         -19.26          -0.18         -137.5          65.66          103.6          50.87          94.53
    0.2288              -12.24          16.78            5.6          35.83         -19.26        -0.1776         -137.4          65.64          103.5          50.87          94.54
    0.2451              -12.25          16.78          5.614          35.84         -19.26         -0.175         -137.3          65.62          103.4          50.87          94.54
    0.2615              -12.26          16.79          5.629          35.86         -19.25        -0.1722         -137.2           65.6          103.3          50.87          94.54
    0.2778              -12.27          16.79          5.646          35.87         -19.25        -0.1691         -137.1          65.58          103.1          50.88          94.54
    0.2941              -12.28           16.8          5.664          35.89         -19.25        -0.1657         -137.0          65.55          103.0          50.88          94.54
    0.3105               -12.3           16.8          5.684           35.9         -19.25        -0.1621         -136.8          65.52          102.8          50.88          94.55
    0.3268              -12.31          16.81          5.706          35.92         -19.25         -0.158         -136.7          65.49          102.7          50.88          94.55
